<?xml version="1.0" encoding="UTF-8"?>
<svg id="Layer_2" data-name="Layer 2" xmlns="http://www.w3.org/2000/svg" viewBox="0 0 408.570457 27.9838867">
  <g id="Layer_8" data-name="Layer 8">
    <path d="M407.702293,18.479248c-1.7373047,2.1713867-4.3417969,4.3422852-6.7060547,4.3422852-.7724609,0-1.8339844-.2900391-1.8339844-1.5927734,0-3.5698242,6.8027344-8.6362305,6.8027344-11.5791016,0-1.0602417-1.0460205-2.2306519-3.2980347-2.4986572l-.2175293-.0128174c-.249939-.0228882-.5002441-.0456543-.7783813-.0456543-.3857422,0-5.4174194,7.9609375-7.9271851,11.3867188-1.6884766,2.2192383-4.1015625,4.3422852-6.4658203,4.3422852-1.0615234,0-2.5087891-.7236328-2.5087891-2.2675781,0-2.4609375,5.6455078-7.0927734,5.6455078-10.7597656,0-1.6884766-.7724609-2.7016602-2.7021484-2.7016602-5.0175781,0-11.9658203,6.706543-15.6806641,12.6411133h-1.4960938c2.4609375-4.3422852,4.7037354-8.0094604,4.7284546-9.6499023.0341187-2.2625122-1.4973145-2.5205078-3.0878906-2.9912109-1.184021-.3504028-5.4425049,7.2922974-7.1567383,11.3867188-1.7373047,2.1713867-4.3427734,4.3422852-6.7060547,4.3422852-.7724609,0-1.8339844-.2900391-1.8339844-1.5927734,0-3.5698242,6.8027344-8.6362305,6.8027344-11.5791016,0-1.0750122-1.0813599-2.258667-3.3990479-2.5046387l-.2184448-.0128174c-.2203979-.017395-.4347534-.0396729-.6764526-.0396729-.3857422,0-5.336731,7.9609375-7.8464966,11.3867188-4.0527344,4.3901367-6.8037109,5.0180664-9.0712891,5.0180664-3.5214844,0-4.8730469-1.7373047-4.7763672-4.1494141.0488281-1.7856445,1.7851562-4.3911133,3.8115234-7.1894531,2.2197266,1.2543945,4.5351562,2.4609375,6.3691406,2.4609375,3.8115234,0,5.6445312-3.5708008,6.4648438-6.8032227h-.7714844c-.8691406,2.5087891-4.5351562,4.2456055-7.7197266,4.2456055-1.4472656,0-2.6054688-.3857422-3.5703125-.9165039,2.7011719-3.715332,5.6445312-7.6713867,5.6445312-10.6147461l-4.390625,1.7851562c.4345703.4824219.5791016,1.3027344.5791016,2.1713867,0,1.7851562-1.2060547,3.8598633-2.8466797,6.0307617-1.9785156-1.4956055-3.7211304-4.8900146-5.4521484-3.425293-2.5366821,2.1464844-2.8764648.0307617-3.7044678,0-5.8388672,0-11.2421875,4.4868164-16.0185547,12.5932617h-1.5927734c2.5087891-4.3911133,4.7773438-8.1064453,4.7773438-9.746582,0-1.640625-1.0136719-2.8466797-3.0878906-2.8466797-.3378906,0-5.9625854,8.1542969-8.2780151,11.3867188-1.7851562,2.1713867-4.2939453,4.3422852-6.5615234,4.3422852-2.1708984,0-2.6533203-1.5439453-2.6533203-2.7021484,0-2.4604492,2.2675781-7.3334961,6.2236328-11.3383789l.3867188-.3857422-1.1582031-.6757812s-2.9433594,2.2680664-5.0175781,2.2197266c-2.7988281,0-2.5097656-2.8466797-5.0664062-2.8466797-3.6037598,0-9.812439,5.7822876-13.2362061,11.3915405-1.6886597,2.2381592-4.2196655,3.8062134-6.3254395,3.8062134-2.3642578,0-3.4736328-1.2060547-3.4736328-3.0874023,0-2.7983398,1.8330078-6.7062988,6.7548828-19.2028809h-4.1015625l-15.2939453,19.6369629h-1.8339844l1.109375-4.5834961c2.5097656-10.3735352-3.0711764-15.0534668-5.2420749-15.0534668-.3378906,0-3.8760892,2.8947754-6.1924955,6.1276855h.7724609c.8681641-1.0131836,2.0263672-2.315918,2.1708984-2.315918,1.4960938,0,3.5224609.5786133,4.9697266,2.1225586-1.3027344,2.2197266-2.9433594,4.4389648-4.7763672,7.5268555-.6279297.9169922-1.1582031,1.7851562-1.6894531,2.5571289-2.5087891,4.0053711-4.7763672,6.2719727-7.7197266,6.2719727-2.75,0-5.414917-.5302734-4.0643311-3.8110352h-1.0126953c-3.6191406,3.3286133-7.5273438,5.0180664-11.53125,5.0180664-4.0537109,0-5.5488281-1.6894531-5.5488281-3.4736328,0-1.0620117.1933594-1.6894531.7236328-2.8955078.7714844,1.4956055,2.4121094,2.8955078,5.1621094,2.8955078,5.0185547,0,12.2558594-5.1630859,12.2558594-9.6020508,0-1.8818359-1.640625-3.3291016-4.1015625-3.3291016-4.0636597,0-9.3466187,3.1283569-12.7816162,7.1140137-.2461548.2855835-.4819946.5755615-.7080078.8691406-1.2879028-.4574585-2.5505981-.5268555-2.5597534-.5273438.1063843-.1502686.2084351-.2982178.293457-.432251l-.06427.0864868c1.5623779-2.3226318,2.5028076-5.3145142,2.5028076-7.640564,0-4.2460938-5.3554688-6.5620117-14.7158203-6.5620117h-5.8378906c-.3378906,0-2.7988281,2.315918-5.1142578,5.5488281h.7714844c.8681641-1.0131836,2.0263672-2.315918,2.1708984-2.315918.6757812,0,1.7373047-.0483398,3.3779297-.0483398l-.6757812,1.0131836c-.3857422.5791016-.8203125,1.1577148-1.2060547,1.7851562-1.3505859,2.1230469-2.8945312,5.2590332-4.390625,7.8161621-5.0175781,1.2543945-8.8779297,3.6669922-8.8779297,8.1542969,0,2.5087891,2.2197266,5.8857422,8.2988281,5.8857422,7.196106,0,17.1529541-5.4421997,22.4803467-12.0003662l-.0805664.1083374s.1187134-.1459351.2893066-.3626709c.0009766-.0001221.0014648-.000061.0025024-.0001831.5158691-.0751343,1.5577393.4203491,2.3728027.8696289-1.1509399,1.8272705-1.8554077,3.7371826-1.8554077,5.5473633,0,3.3291016,1.640625,5.8378906,6.1757812,5.8378906,4.1098633,0,8.4282837-3.2594604,12.243042-7.2366943-.0651855.4891357-.0732422,1.0775146-.0732422,1.9290771,0,3.5703125,2.0751953,5.3076172,4.8730469,5.3076172,3.4257812,0,6.3203125-2.8945312,10.7109375-11.0488281l1.3027344-2.4121094c1.4482422-2.7021484,3.0878906-5.355957,4.1982422-7.4306641.9648438,1.5439453,1.0126953,3.715332.5302734,6.7548828-.6269531,4.1494141-1.6027083,8.4433594-3.8224348,14.1367188h5.1630859c3.0878906-6.6582031,9.3224348-14.8120117,14.1954817-20.0229492h1.8330078c-2.3632812,5.5966797-5.6923828,12.2543945-5.6923828,15.6811523,0,3.0878906,1.5917969,4.3417969,3.9072266,4.3417969,2.3956299,0,5.4494629-2.6671753,7.9124146-5.6234741-.3843384,1.0706787-.6056519,2.0793457-.6056519,2.9701538,0,1.4472656.9648438,2.6533203,2.6054688,2.6533203,4.4384766,0,12.1582031-8.0087891,17.2724609-14.6674805.5791016-.0483398,1.3027344-.3374023,2.0751953-.7719727-3.1845703,4.0048828-6.3691406,8.9257812-6.3691406,12.3994141,0,1.3994141,1.0615234,3.0400391,3.1357422,3.0400391,4.3427734,0,9.2636719-5.4521484,11.7734375-9.3598633.8691406-1.0131836,4.3688354-6.9477539,4.5133667-6.9477539,1.5439453,0,2.75.3857422,2.75,1.6401367,0,1.9301758-6.9960938,12.9301758-7.9609375,14.6674805h6.0791016c2.8955078-8.2021484,9.3095093-15.0183105,13.0308228-16.9597168.6079102-.3171387,2.6539307-2.0615234,3.1984253-1.5622559.3753052.3309326,3.2789917,2.7857056,5.2310791.7182617,1.2590942-1.3334961,2.9433594.5307617,4.7285156,1.5439453-3.4257812,4.2944336-8.0087891,8.8779297-8.0087891,12.4003906,0,2.4121094,1.5439453,3.859375,4.2939453,3.859375,4.3427734,0,11.53125-3.859375,15.8251953-9.3598633.8681641-.965332,4.1800537-6.6645508,4.2757568-6.6645508,2.3164062,0,2.6547241.4887695,2.6547241,1.4536133,0,2.7983398-8.0087891,7.3823242-8.0087891,11.8208008,0,1.8818359,1.2060547,2.75,3.3769531,2.75,4.0048828,0,8.9257812-5.4033203,11.4345703-9.3598633.8681641-1.0131836,3.3452759-6.8032227,3.4907837-6.8032227,1.5439453,0,2.75.3857422,2.75,1.640625,0,1.9296875-6.9482422,12.7851562-7.9130859,14.5224609h6.4658203c2.21875-7.671875,8.1533203-16.1630859,14.0878906-16.1630859,1.2548828,0,2.0751953.4824219,2.0751953,1.5922852,0,1.8334961-5.6933594,8.2504883-5.6933594,11.7241211,0,1.5927734.9648438,2.8466797,3.0390625,2.8466797,3.3291016,0,8.0576172-5.4521484,10.5185547-9.3598633.624939-1.0134277,4.1814575-6.6645508,4.2781372-6.6645508,2.3164062,0,2.7808838.4887695,2.7808838,1.4536133,0,2.7983398-8.0087891,7.3823242-8.0087891,11.8208008,0,1.8818359,1.2060547,2.75,3.3769531,2.75,4.0048828,0,8.9257812-5.4033203,11.4345703-9.3598633h-.8681641ZM230.8098369,11.3864746c1.9296875,0,2.5566406.5791016,2.5566406,1.2060547,0,1.6889648-3.859375,4.4389648-9.6972656,4.4389648-2.75,0-3.9570312-.7719727-4.5351562-1.3989258,3.5214844-3.28125,8.8291016-4.2460938,11.6757812-4.2460938ZM185.9377666,19.8303223c0-1.3510742,1.8330078-3.0400391,5.5478516-4.2460938-1.2060547,2.2192383-2.2675781,4.390625-2.9912109,6.2236328-1.640625-.3857422-2.5566406-1.0615234-2.5566406-1.9775391ZM193.6574931,22.2902832c-.9648438,0-1.8339844-.0478516-2.6542969-.0957031.6757812-2.5087891,1.6894531-4.921875,2.8466797-7.237793,2.8955078-.675293,6.5625-1.109375,11.0976562-1.109375v-1.3027344c-3.2324219,0-6.8994141.1928711-10.2285156.7719727,1.2539062-2.315918,2.6533203-4.5839844,4.0527344-6.7548828.6748047-.9169922,1.3027344-1.8818359,1.9296875-2.8466797h2.2675781c4.390625,0,12.7861328.8686523,12.7861328,6.2241211,0,5.6933594-12.7861328,12.3510742-22.0976562,12.3510742ZM284.68679,22.8215332c-1.8818359,0-2.0742188-1.5439453-2.0742188-2.7021484,0-3.9560547,5.8378906-9.5532227,9.3603516-9.5532227,1.8818359,0,2.7978516,1.5439453,4.2939453,2.2680664-4.5839844,6.1757812-9.0712891,9.9873047-11.5800781,9.9873047Z"/>
  </g>
  <g id="Layer_7" data-name="Layer 7">
    <path id="First" d="M8.2983398,27.9838867c-6.0791016,0-8.2983398-3.3769531-8.2983398-7.8642578C0,10.6625977,12.5927734,0,22.5317383,0c3.8598633,0,6.0791016,1.8818359,6.0791016,4.4389648,0,3.4736328-4.390625,7.2851562-9.9389648,8.5400391l-.2895508-1.0615234c4.5834961-1.2548828,7.7680664-3.715332,7.7680664-5.2592773,0-1.2060547-1.7368164-1.7368164-3.956543-1.7368164C12.9301758,4.9213867,2.5571289,11.8208008,2.4604492,17.1279297c-.0483398,3.9077148,3.1362305,5.3071289,8.0576172,5.3071289,3.811524,0,11.5274373-1.5508138,16.4004851-8.8369479l.0038118.2490573c-5.6933594,8.2509766-13.3647461,14.1367188-18.6240234,14.1367188ZM47.7539063,8.3952637l-.3857422.3857422c-3.956543,4.0048828-6.2241211,8.8779297-6.2241211,11.3383789,0,1.1582031.4824219,2.7021484,2.6533203,2.7021484,2.2680664,0,4.7768555-2.1708984,6.5620117-4.3422852h.9648438c-2.5087891,3.9077148-7.4301758,9.3598633-11.7724609,9.3598633-2.074707,0-3.1362305-1.640625-3.1362305-3.0400391,0-3.4736328,3.1845703-8.3945312,6.3686523-12.3994141-.7719727.4345703-1.4956055.7236328-2.074707.7719727-5.1142578,6.6586914-12.8339844,14.6674805-17.2724609,14.6674805-1.640625,0-2.6054688-1.2060547-2.6054688-2.6533203,0-6.2241211,10.5180664-18.0932617,15.6806641-18.0932617,2.5571289,0,2.2675781,2.8466797,5.065918,2.8466797,2.074707.0483398,5.0180664-2.2197266,5.0180664-2.2197266l1.1577148.6757812ZM27.5380859,22.8215332c2.5087891,0,6.9956055-3.8115234,11.5795898-9.9873047-1.4960938-.7241211-2.4125977-2.2680664-4.2944336-2.2680664-3.5219727,0-9.3598633,5.597168-9.3598633,9.5532227,0,1.1582031.1928711,2.7021484,2.074707,2.7021484ZM56.6806641,14.088623c0-1.3027344.105264-1.8866164-1.6798923-1.8866164-.1450195,0-2.8079007,5.2640578-3.676553,6.2772414h-.9648438c2.315918-3.2807617,6.1762695-11.3867188,6.5141602-11.3867188,2.074707,0,3.0878906,1.3989258,3.0878906,3.0395508,0,1.6884766-1.7368164,5.2592773-3.8598633,9.5537109h1.7368164c2.7983398-5.8383789,7.2856445-12.5932617,11.3383789-12.5932617,2.4125977,0,3.3774414,1.2060547,3.3774414,3.1362305,0,2.6054688-3.4257812,7.0922852-4.4873047,9.4570312h1.8334961c2.7021484-5.7905273,7.140625-12.5932617,12.0136719-12.5932617,1.640625,0,2.8950195,1.2543945,2.8950195,2.8466797,0,3.2807617-4.5351562,8.2504883-4.5351562,10.6147461,0,1.4951172,1.5439453,2.21875,2.5571289,2.21875,2.3642578,0,4.8730469-2.0742188,6.6098633-4.293457h.9169922c-2.5571289,3.9077148-7.2856445,9.3598633-10.6147461,9.3598633-2.1230469,0-3.0878906-1.3027344-3.0878906-2.8945312,0-3.4257812,4.4868164-8.4921875,4.4868164-11.3388672,0-1.109375-.9165039-1.6884766-1.8813477-1.6884766-5.0664062,0-8.347168,8.5878906-9.8911133,15.921875h-6.9477539c4.8730469-9.7944336,6.8032227-12.8339844,6.8032227-14.4746094,0-1.109375-.9169922-1.6401367-1.8818359-1.6401367-4.5351562,0-8.6362305,8.3950195-10.8076172,16.1147461h-6.5136719c3.7636719-6.8994141,6.6586914-10.8076172,6.6586914-13.7504883ZM104.8879883,7.0925293c2.4609375,0,4.1010742,1.4472656,4.1010742,3.3291016,0,4.4389648-7.2373047,9.6020508-12.2548828,9.6020508-2.75,0-4.390625-1.3999023-5.1625977-2.8955078-.5307617,1.2060547-.7236328,1.8334961-.7236328,2.8955078,0,1.7841797,1.4956055,3.4736328,5.5483398,3.4736328,4.0048828,0,7.9130859-1.6894531,11.53125-5.0180664h1.0136719c-4.2460938,4.8725586-9.3603516,9.3598633-14.1850586,9.3598633-4.5356445,0-6.1757812-2.5087891-6.1757812-5.8378906,0-6.7548828,9.7460938-14.9086914,16.3076172-14.9086914ZM97.1199219,17.0314941c5.8383789,0,9.6982422-2.75,9.6982422-4.4389648,0-.6269531-.6274414-1.2060547-2.5571289-1.2060547-2.8466797,0-8.1542969.9648438-11.6762695,4.2460938.5791016.6269531,1.7851562,1.3989258,4.5351562,1.3989258ZM115.9368164,13.1716309c0-1.2543945-1.2649349-.6518485-2.8088802-.6518485-.1445312,0-3.3180729,4.9462821-4.1867253,5.9594657h-1.0136719c2.315918-3.2324219,7.7197266-11.3867188,8.0576172-11.3867188,2.074707,0,3.0878906,1.2060547,3.0878906,2.8466797,0,1.6401367-2.2675781,5.3554688-4.7763672,9.746582h1.5922852c4.7763672-8.1064453,10.1801758-12.5932617,16.0180664-12.5932617l-.8153399,1.8754135c-.0702515-.0167999-2.3235412.1451682-4.1612903,1.5-3.3784242,2.4906537-9.980401,9.1690201-12.8749323,17.3711686h-6.0795898c.965332-1.7373047,7.9609375-12.7373047,7.9609375-14.6674805ZM127.7581055,22.0490723c0-4.3901367,3.7636719-9.1669922,8.2988281-12.1098633l.0000041-.4345703c.1318359-.8303375-4.3095304-.4963822-4.9652464-.5366959l.815344-1.8754135c.7857056-.1447449,5.3251953,1.5319977,5.0668945,2.315918,2.4121094-1.4477539,5.017574-2.315918,7.333492-2.315918,3.1362305,0,4.4384766,1.8334961,4.4384766,4.1010742,0,.3857422-.0478516.7719727-.1445312,1.2543945.1933594.4824219.2412109,1.0615234.2412109,1.7368164,0,6.5615234-9.456543,13.6542969-14.715332,13.6542969-4.5356445,0-6.3691406-2.9912109-6.3691406-5.7900391ZM135.3816406,22.9182129c4.9213867,0,10.9521484-4.0048828,11.7724609-7.8647461-.8203125.8203125-2.074707,1.3989258-3.8598633,1.3989258-2.8950195,0-5.4038086-1.6401367-6.5615234-4.0527344-4.0048828,1.8818359-6.7548828,5.1625977-6.7548828,7.4785156,0,1.9785156,2.1230469,3.0400391,5.4038086,3.0400391ZM143.2942383,14.088623c3.3291016,0,3.8115234-.8203125,3.8115234-1.5922852,0-.8686523-1.1577148-1.640625-3.8115234-1.640625-1.8818359,0-3.715332.3862305-5.4038086,1.0131836.8686523,1.2543945,2.4609375,2.2197266,5.4038086,2.2197266ZM164.9984816,27.8391113c-2.0751953,0-3.0400391-1.2539062-3.0400391-2.8466797,0-3.4736328,5.6933594-9.890625,5.6933594-11.7241211,0-1.1098633-.8203125-1.5922852-2.0742188-1.5922852-5.9345703,0-11.8691406,8.4912109-14.0888672,16.1630859h-6.465332c.965332-1.7373047,7.9125977-12.5927734,7.9125977-14.5224609,0-1.2548828-1.2060547-1.640625-2.75-1.640625-.1445312,0-.7714844.6274414-1.640625,1.640625h-.7714844c2.3154297-3.2329102,4.8730469-6.2241211,5.2109375-6.2241211,2.0742188,0,3.0878906,1.3510742,3.0878906,2.9912109,0,1.640625-2.2675781,5.3076172-4.7285156,9.6499023h1.4951172c3.7158203-5.9345703,10.6630859-12.6411133,15.6816406-12.6411133,1.9296875,0,2.7011719,1.0131836,2.7011719,2.7016602,0,3.6669922-5.6445312,8.2988281-5.6445312,10.7597656,0,1.5439453,1.4472656,2.2675781,2.5087891,2.2675781,2.3642578,0,4.7763672-2.1230469,6.4648438-4.3422852h.9648438c-2.4599609,3.9077148-7.1884766,9.3598633-10.5175781,9.3598633Z"/>
  </g>
  <g id="Layer_6" data-name="Layer 6">
    <path d="M403.6261211,4.1382446s.1437378.12323.5709839.2156982c.2956543.0822144.6118164.1331177.9485474.1331177,1.4472656,0,2.7011719-.9165039,2.7011719-2.2675781,0-1.1098633-1.3445218-2.2136624-2.7917874-2.2136624-1.5439453,0-2.6603611,1.1037991-2.6603611,2.2136624,0,.8550415.4851685,1.5339966,1.2314453,1.9187622Z"/>
  </g>
  <g id="Layer_5" data-name="Layer 5">
    <path d="M360.8584209,4.0892944c.1192017.071167.5636597.2429199.5636597.2429199.3200684.0991821.6699219.1548462,1.0409546.1548462,1.4472656,0,2.7011719-.9165039,2.7011719-2.2675781,0-1.1098633-1.3445218-2.2136624-2.7917874-2.2136624-1.5439453,0-2.6603611,1.1037991-2.6603611,2.2136624,0,.821228.4498901,1.4779663,1.1463623,1.869812Z"/>
  </g>
</svg>