<?xml version="1.0" encoding="UTF-8"?>
<svg id="a" data-name="Layer 1" xmlns="http://www.w3.org/2000/svg" viewBox="0 0 224.9491 60.408">
  <defs>
    <style>
      .f {
        fill: #010101;
      }
    </style>
  </defs>
  <g id="b" data-name="c">
    <path class="f" d="M224.0811,51.048c-1.7373,2.1714-4.3418,4.3423-6.7061,4.3423-.7725,0-1.834-.29-1.834-1.5928,0-3.5698,6.8027-8.6362,6.8027-11.5791,0-1.0602-1.046-2.2307-3.298-2.4987l-.2175-.0128c-.2499-.0229-.5002-.0457-.7784-.0457-.3857,0-5.4174,7.9609-7.9272,11.3867-1.6885,2.2192-4.1016,4.3423-6.4658,4.3423-1.0615,0-2.5088-.7236-2.5088-2.2676,0-2.4609,5.6455-7.0928,5.6455-10.7598,0-1.6885-.7725-2.7017-2.7021-2.7017-5.0176,0-11.9658,6.7065-15.6807,12.6411h-1.4961c2.4609-4.3423,4.7037-8.0095,4.7285-9.6499.0341-2.2625-1.4973-2.5205-3.0879-2.9912-1.184-.3504-5.4425,7.2923-7.1567,11.3867-1.7373,2.1714-4.3428,4.3423-6.7061,4.3423-.7725,0-1.834-.29-1.834-1.5928,0-3.5698,6.8027-8.6362,6.8027-11.5791,0-1.075-1.0814-2.2587-3.399-2.5046l-.2184-.0128c-.2204-.0174-.4348-.0397-.6765-.0397-.3857,0-5.3367,7.9609-7.8465,11.3867-4.0527,4.3901-6.8037,5.0181-9.0713,5.0181-3.5215,0-4.873-1.7373-4.7764-4.1494.0488-1.7856,1.7852-4.3911,3.8115-7.1895,2.2197,1.2544,4.5352,2.4609,6.3691,2.4609,3.8115,0,5.6445-3.5708,6.4648-6.8032h-.7715c-.8691,2.5088-4.5352,4.2456-7.7197,4.2456-1.4473,0-2.6055-.3857-3.5703-.9165,2.7012-3.7153,5.6445-7.6714,5.6445-10.6147l-4.3906,1.7852c.4346.4824.5791,1.3027.5791,2.1714,0,1.7852-1.2061,3.8599-2.8467,6.0308-1.9785-1.4956-3.7211-4.89-5.4521-3.4253-2.5367,2.1465-2.8765.0308-3.7045,0-5.8389,0-11.2422,4.4868-16.0186,12.5933h-1.5928c2.5088-4.3911,4.7773-8.1064,4.7773-9.7466s-1.0137-2.8467-3.0879-2.8467c-.3379,0-5.9626,8.1543-8.278,11.3867-1.7852,2.1714-4.2939,4.3423-6.5615,4.3423-2.1709,0-2.6533-1.5439-2.6533-2.7021,0-2.4604,2.2676-7.3335,6.2236-11.3384l.3867-.3857-1.1582-.6758s-2.9434,2.2681-5.0176,2.2197c-2.7988,0-2.5098-2.8467-5.0664-2.8467-3.6038,0-9.8124,5.7823-13.2362,11.3915-1.6887,2.2382-4.2197,3.8062-6.3254,3.8062-2.3643,0-3.4736-1.2061-3.4736-3.0874,0-2.7983,1.833-6.1274,6.7549-18.624h-4.1016l-15.2939,19.0581h-1.834l1.1094-4.5835c2.5098-10.3735-3.0879-15.1982-5.2588-15.1982-.3379,0-3.8594,3.0396-6.1758,6.2725h.7725c.8682-1.0132,2.0264-2.3159,2.1709-2.3159,1.4961,0,3.5225.5786,4.9697,2.1226-1.3027,2.2197-2.9434,4.439-4.7764,7.5269-.6279.917-1.1582,1.7852-1.6895,2.5571-2.5088,4.0054-4.7764,6.272-7.7197,6.272-2.75,0-5.4149-.5303-4.0643-3.811h-1.0127c-3.6191,3.3286-7.5273,5.0181-11.5312,5.0181-4.0537,0-5.5488-1.6895-5.5488-3.4736,0-1.062.1934-1.6895.7236-2.8955.7715,1.4956,2.4121,2.8955,5.1621,2.8955,5.0186,0,12.2559-5.1631,12.2559-9.6021,0-1.8818-1.6406-3.3291-4.1016-3.3291-4.0637,0-9.3466,3.1284-12.7816,7.114-.2462.2856-.482.5756-.708.8691-1.2879-.4575-2.5506-.5269-2.5598-.5273.1064-.1503.2084-.2982.2935-.4323l-.0643.0865c1.5624-2.3226,2.5028-4.7357,2.5028-7.0617,0-4.2461-5.3555-6.562-14.7158-6.562h-5.8379c-.3379,0-2.7988,2.3159-5.1143,5.5488h.7715c.8682-1.0132,2.0264-2.3159,2.1709-2.3159.6758,0,1.7373-.0483,3.3779-.0483l-.6758,1.0132c-.3857.5791-.8203,1.1577-1.2061,1.7852-1.3506,2.123-2.8945,4.6802-4.3906,7.2373-5.0176,1.2544-8.8779,3.667-8.8779,8.1543,0,2.5088,2.2197,5.8857,8.2988,5.8857,7.1961,0,17.153-5.4422,22.4803-12.0004l-.0806.1083s.1187-.1459.2893-.3627c.001,0,.0015,0,.0025-.0002.5159-.0751,1.5577.4203,2.3728.8696-1.1509,1.8273-1.8554,3.7372-1.8554,5.5474,0,3.3291,1.6406,5.8379,6.1758,5.8379,4.1099,0,8.4283-3.2595,12.243-7.2367-.0652.4891-.0732,1.0775-.0732,1.9291,0,3.5703,2.0752,5.3076,4.873,5.3076,3.4258,0,6.3203-2.8945,10.7109-11.0488l1.3027-2.4121c1.4482-2.7021,3.0879-5.356,4.1982-7.4307.9648,1.5439,1.0127,3.7153.5303,6.7549-.627,4.1494-1.5918,7.7197-3.8115,13.4131h5.1631c3.0879-6.6582,9.3115-14.0884,14.1846-19.2993h1.833c-2.3633,5.5967-5.6924,12.2544-5.6924,15.6812,0,3.0879,1.5918,4.3418,3.9072,4.3418,2.3956,0,5.4495-2.6672,7.9124-5.6235-.3843,1.0707-.6057,2.0793-.6057,2.9702,0,1.4473.9648,2.6533,2.6055,2.6533,4.4385,0,12.1582-8.0088,17.2725-14.6675.5791-.0483,1.3027-.3374,2.0752-.772-3.1846,4.0049-6.3691,8.9258-6.3691,12.3994,0,1.3994,1.0615,3.04,3.1357,3.04,4.3428,0,9.2637-5.4521,11.7734-9.3599.8691-1.0132,4.3688-6.9478,4.5134-6.9478,1.5439,0,2.75.3857,2.75,1.6401,0,1.9302-6.9961,12.2065-7.9609,13.9438h6.0791c2.8955-8.2021,9.3095-14.2947,13.0308-16.2361.6079-.3171,2.6539-2.0615,3.1984-1.5623.3753.3309,3.279,2.7857,5.2311.7183,1.2591-1.3335,2.9434.5308,4.7285,1.5439-3.4258,4.2944-8.0088,8.8779-8.0088,12.4004,0,2.4121,1.5439,3.8594,4.2939,3.8594,4.3428,0,11.5312-3.8594,15.8252-9.3599.8682-.9653,4.1801-6.6646,4.2758-6.6646,2.3164,0,2.6547.4888,2.6547,1.4536,0,2.7983-8.0088,7.3823-8.0088,11.8208,0,1.8818,1.2061,2.75,3.377,2.75,4.0049,0,8.9258-5.4033,11.4346-9.3599.8682-1.0132,3.3453-6.8032,3.4908-6.8032,1.5439,0,2.75.3857,2.75,1.6406,0,1.9297-6.9482,12.0615-7.9131,13.7988h6.4658c2.2188-7.6719,8.1533-15.4395,14.0879-15.4395,1.2549,0,2.0752.4824,2.0752,1.5923,0,1.8335-5.6934,8.2505-5.6934,11.7241,0,1.5928.9648,2.8467,3.0391,2.8467,3.3291,0,8.0576-5.4521,10.5186-9.3599.6249-1.0134,4.1815-6.6646,4.2781-6.6646,2.3164,0,2.7809.4888,2.7809,1.4536,0,2.7983-8.0088,7.3823-8.0088,11.8208,0,1.8818,1.2061,2.75,3.377,2.75,4.0049,0,8.9258-5.4033,11.4346-9.3599h-.8682l.0003.0005ZM47.1886,43.9553c1.9297,0,2.5566.5791,2.5566,1.2061,0,1.689-3.8594,4.439-9.6973,4.439-2.75,0-3.957-.772-4.5352-1.3989,3.5215-3.2812,8.8291-4.2461,11.6758-4.2461h.0001ZM2.3165,52.3991c0-1.3511,1.833-3.04,5.5479-4.2461-1.2061,2.2192-2.2676,4.3906-2.9912,6.2236-1.6406-.3857-2.5566-1.0615-2.5566-1.9775h-.0001ZM10.0363,54.8591c-.9648,0-1.834-.0479-2.6543-.0957.6758-2.5088,1.6895-4.9219,2.8467-7.2378,2.8955-.6753,6.5625-1.1094,11.0977-1.1094v-1.3027c-3.2324,0-6.8994.1929-10.2285.772,1.2539-2.3159,2.6533-4.584,4.0527-6.7549.6748-.917,1.3027-1.8818,1.9297-2.8467h2.2676c4.3906,0,12.7861.8687,12.7861,6.2241,0,5.6934-12.7861,12.3511-22.0977,12.3511ZM101.0656,55.3903c-1.8818,0-2.0742-1.5439-2.0742-2.7021,0-3.9561,5.8379-9.5532,9.3604-9.5532,1.8818,0,2.7979,1.5439,4.2939,2.2681-4.584,6.1758-9.0713,9.9873-11.5801,9.9873h0Z"/>
  </g>
  <g id="c" data-name="d">
    <path class="f" d="M199.2678,18.4794c-1.6885,2.2192-4.1006,4.3423-6.4648,4.3423-1.0615,0-2.5088-.7236-2.5088-2.2676,0-2.4609,5.6445-7.0928,5.6445-10.7598,0-1.6885-.7715-2.7017-2.7012-2.7017-5.0186,0-11.9658,6.7065-15.6816,12.6411h-1.4951c2.4609-4.3423,4.7285-8.0093,4.7285-9.6499s-1.0137-2.9912-3.0879-2.9912c-.2953,0-2.2858,2.2844-4.3283,5.0181.0536-.3279.0894-.6294.0894-.9171,0-2.2676-1.3022-4.1011-4.4385-4.1011-2.3159,0-4.9213.8682-7.3334,2.3159.2583-.7839-4.347-2.4605-5.1328-2.3157l-.0012.0031c-5.8121.0344-11.1931,4.5148-15.951,12.59h-1.5923c2.5088-4.3911,4.7764-8.1064,4.7764-9.7466s-1.0132-2.8467-3.0879-2.8467c-.3379,0-5.7417,8.1543-8.0576,11.3867-3.6182,3.3286-7.5264,5.0181-11.5312,5.0181-4.0527,0-5.5483-1.6895-5.5483-3.4736,0-1.062.1929-1.6895.7236-2.8955.772,1.4956,2.4126,2.8955,5.1626,2.8955,5.0176,0,12.2549-5.1631,12.2549-9.6021,0-1.8818-1.6401-3.3291-4.1011-3.3291-5.5026,0-13.2435,5.7343-15.5992,11.569-1.7296,2.1484-4.159,4.1111-6.4577,4.1111-1.0132,0-2.5571-.7236-2.5571-2.2188,0-2.3643,4.5352-7.334,4.5352-10.6147,0-1.5923-1.2544-2.8467-2.895-2.8467-4.873,0-9.3115,6.8027-12.0137,12.5933h-1.8335c1.0615-2.3647,4.4873-6.8516,4.4873-9.457,0-1.9302-.9648-3.1362-3.3774-3.1362-4.0527,0-8.54,6.7549-11.3384,12.5933h-1.7368c2.123-4.2944,3.8599-7.8652,3.8599-9.5537,0-1.6406-1.0132-3.0396-3.0879-3.0396-.3379,0-4.1982,8.106-6.5142,11.3867-1.7852,2.1714-4.2939,4.3423-6.562,4.3423-2.1709,0-2.6533-1.5439-2.6533-2.7021,0-2.4604,2.2676-7.3335,6.2241-11.3384l.3857-.3857-1.1577-.6758s-2.9434,2.2681-5.0181,2.2197c-2.7983,0-2.5088-2.8467-5.0659-2.8467-2.5339,0-6.3563,2.8613-9.5936,6.5089v-.0034c-.0043.0063-.0089.0117-.0131.018-.762.8595-1.4896,1.7615-2.1617,2.6811-4.7649,4.9769-10.9422,6.1379-14.2256,6.1379-4.9214,0-8.106-1.3994-8.0576-5.3071.0967-5.3071,10.4697-12.2065,19.7334-12.2065,2.2197,0,3.9565.5308,3.9565,1.7368,0,1.5439-3.1846,4.0044-7.7681,5.2593l.2896,1.0615c5.5483-1.2549,9.939-5.0664,9.939-8.54,0-2.5571-2.2192-4.439-6.0791-4.439-9.9393.0002-22.5321,10.6628-22.5321,20.1198,0,4.4873,2.2192,7.8643,8.2983,7.8643,4.1877,0,9.9025-3.7388,14.9326-9.4249-1.4555,2.4014-2.3994,4.7664-2.3994,6.6268,0,1.4473.9648,2.6533,2.6055,2.6533,4.4385,0,12.1582-8.0088,17.2725-14.6675.5791-.0483,1.3027-.3374,2.0747-.772-3.1841,4.0049-6.3687,8.9258-6.3687,12.3994,0,1.3994,1.0615,3.04,3.1362,3.04,4.3423,0,9.2637-5.4521,11.7725-9.3599.8687-1.0132,3.5315-6.2773,3.6765-6.2773,1.7852,0,1.6799.5839,1.6799,1.8867,0,2.9429-2.895,6.1274-6.6587,13.0269h6.5137c2.1714-7.7197,6.2725-15.3911,10.8076-15.3911.9648,0,1.8818.5308,1.8818,1.6401,0,1.6406-1.9302,3.9565-6.8032,13.751h6.9478c1.5439-7.334,4.8247-15.1982,9.8911-15.1982.9648,0,1.8813.5791,1.8813,1.6885,0,2.8467-4.4868,7.9131-4.4868,11.3389,0,1.5918.9648,2.8945,3.0879,2.8945,2.6905,0,6.2939-3.5609,8.9276-6.9898,0,.0005-.0003.0012-.0004.0017-.0592.3867-.09.7706-.09,1.1502,0,3.3291,1.6401,5.8379,6.1758,5.8379,4.8247,0,9.939-4.4873,14.1851-9.3599.8687-1.0132,4.0422-5.9595,4.1868-5.9595,1.5439,0,2.8088-.6025,2.8088.6519,0,1.9302-6.9956,12.2065-7.9609,13.9438h6.0796c2.8945-8.2021,9.4965-14.1569,12.8749-16.6475,1.8378-1.3549,4.0911-1.5168,4.1613-1.5.6557.0403,5.0971-.2936,4.9653.5367v.4346c-4.5352,2.9429-8.2989,7.7197-8.2989,12.1099,0,2.7988,1.8335,5.79,6.3691,5.79,5.2588,0,14.7153-7.0928,14.7153-13.6543,0-.4086-.032-.77-.0887-1.108.7586-.8689,1.2996-1.4008,1.4321-1.4008,1.5439,0,2.75.3857,2.75,1.6406,0,1.9297-6.9473,12.0615-7.9126,13.7988h6.4653c2.2197-7.6719,8.1543-15.4395,14.0889-15.4395,1.2539,0,2.0742.4824,2.0742,1.5923,0,1.8335-5.6934,8.2505-5.6934,11.7241,0,1.5928.9648,2.8467,3.04,2.8467,3.3291,0,8.0576-5.4521,10.5176-9.3599h-.9648.0001ZM128.9776,11.3867c1.9297,0,2.5571.5791,2.5571,1.2061,0,1.689-3.8599,4.439-9.6982,4.439-2.75,0-3.9561-.772-4.5352-1.3989,3.522-3.2812,8.8296-4.2461,11.6763-4.2461h0ZM52.2547,22.8217c-1.8818,0-2.0747-1.5439-2.0747-2.7021,0-3.9561,5.8379-9.5532,9.3599-9.5532,1.8818,0,2.7983,1.5439,4.2944,2.2681-4.584,6.1758-9.0708,9.9873-11.5796,9.9873h0ZM168.0108,10.8559c2.6538,0,3.8115.772,3.8115,1.6406,0,.772-.4824,1.5923-3.8115,1.5923-2.9429,0-4.5352-.9653-5.4038-2.2197,1.6885-.627,3.522-1.0132,5.4038-1.0132ZM160.0982,22.9184c-3.2808,0-5.4038-1.0615-5.4038-3.04,0-2.3159,2.75-5.5967,6.7549-7.4785,1.1577,2.4126,3.6665,4.0527,6.5615,4.0527,1.7852,0,3.0396-.5786,3.8599-1.3989-.8203,3.8599-6.8511,7.8647-11.7725,7.8647h0Z"/>
  </g>
  <g id="d" data-name="e">
    <path class="f" d="M220.0049,36.707s.1437.1232.571.2157c.2957.0822.6118.1331.9485.1331,1.4473,0,2.7012-.9165,2.7012-2.2676,0-1.1099-1.2539-2.123-2.7012-2.123-1.5439,0-2.751,1.0132-2.751,2.123,0,.855.4852,1.534,1.2314,1.9188h0Z"/>
  </g>
  <g id="e" data-name="f">
    <path class="f" d="M177.2372,36.6581c.1192.0712.5637.2429.5637.2429.3201.0992.6699.1548,1.041.1548,1.4473,0,2.7012-.9165,2.7012-2.2676,0-1.1099-1.2539-2.123-2.7012-2.123-1.5439,0-2.751,1.0132-2.751,2.123,0,.8212.4499,1.478,1.1464,1.8698h0Z"/>
  </g>
</svg>