<?xml version="1.0" encoding="UTF-8"?>
<svg id="Layer_2" data-name="Layer 2" xmlns="http://www.w3.org/2000/svg" viewBox="0 0 55.7270508 27.9838867">
  <g id="Abbreviated">
    <g>
      <path d="M21.4793701,19.895813c-.0837402.3034058-.1516724.6157227-.1921387.9431152.8981323-.9462891,1.7854004-1.9752197,2.6539917-3.0944214-.7995605.862915-1.6256714,1.5696411-2.461853,2.1513062Z"/>
      <path d="M55.7270508,6.9238281c0-4.2460938-5.3554688-6.5620117-14.7158203-6.5620117h-5.8378906c-.3378906,0-2.7988281,2.315918-5.1142578,5.5488281h.7714844c.8681641-1.0131836,2.0263672-2.315918,2.1708984-2.315918.6757812,0,1.7373047-.0483398,3.3779297-.0483398l-.6757812,1.0131836c-.3857422.5791016-.8203125,1.1577148-1.2060547,1.7851562-1.3505859,2.1230469-2.8945312,4.6801758-4.390625,7.2373047-1.5911865.3978271-3.0643311.913269-4.3365479,1.5732422l.0077515.4993896-.0224609.0332031c-1.4450684,2.0939941-2.9555664,3.9431763-4.4990234,5.541748-.0114136.1677246-.0276489.3328247-.0276489.5067139,0,2.5087891,2.2197266,5.8857422,8.2988281,5.8857422,7.196106,0,17.1529541-5.4421997,22.4803467-12.0003662l-.0805664.1083374s.1187134-.1459351.2893066-.3626709c.0009766-.0001221.0014648-.000061.0025024-.0001831l.7756348-1.0358887c.1063843-.1502686.2084351-.2982178.293457-.432251l-.06427.0864868c1.5623779-2.3226318,2.5028076-4.7356567,2.5028076-7.0617065ZM23.5454102,19.6132812c0-1.3510742,1.8330078-3.0400391,5.5478516-4.2460938-1.2060547,2.2192383-2.2675781,4.390625-2.9912109,6.2236328-1.640625-.3857422-2.5566406-1.0615234-2.5566406-1.9775391ZM31.2651367,22.0732422c-.9648438,0-1.8339844-.0478516-2.6542969-.0957031.6757812-2.5087891,1.6894531-4.921875,2.8466797-7.237793,2.8955078-.675293,6.5625-1.109375,11.0976562-1.109375v-1.3027344c-3.2324219,0-6.8994141.1928711-10.2285156.7719727,1.2539062-2.315918,2.6533203-4.5839844,4.0527344-6.7548828.6748047-.9169922,1.3027344-1.8818359,1.9296875-2.8466797h2.2675781c4.390625,0,12.7861328.8686523,12.7861328,6.2241211,0,5.6933594-12.7861328,12.3510742-22.0976562,12.3510742Z"/>
      <path d="M25.5639648,15.2694702c-1.9037476,1.0304565-3.3284302,2.4007568-3.9642944,4.21875,1.3729248-1.0018921,2.7131958-2.3480225,3.9450684-4.1900024l.0192261-.0287476Z"/>
    </g>
    <g id="First">
      <path d="M8.2983398,27.9838867c-6.0791016,0-8.2983398-3.3769531-8.2983398-7.8642578C0,10.6625977,12.5927734,0,22.5317383,0c3.8598633,0,6.0791016,1.8818359,6.0791016,4.4389648,0,3.4736328-4.390625,7.2851562-9.9389648,8.5400391l-.2895508-1.0615234c4.5834961-1.2548828,7.7680664-3.715332,7.7680664-5.2592773,0-1.2060547-1.7368164-1.7368164-3.956543-1.7368164C12.9301758,4.9213867,2.5571289,11.8208008,2.4604492,17.1279297c-.0483398,3.9077148,3.1362305,5.3071289,8.0576172,5.3071289,3.811524,0,10.2577897.218263,15.1308374-7.0678711l.0038118.2490573c-5.6933594,8.2509766-12.0950985,12.3676419-17.3543758,12.3676419Z"/>
    </g>
  </g>
</svg>